<svg xmlns="http://www.w3.org/2000/svg" width="20" height="18" viewBox="0 0 20 18" fill="none">
  <path d="M9.283 18a8.7 8.7 0 0 1-3.506-.71 9.1 9.1 0 0 1-2.858-1.926 9.1 9.1 0 0 1-1.926-2.858A8.7 8.7 0 0 1 .283 9q0-1.862.71-3.506A9.1 9.1 0 0 1 2.92 2.637 9.1 9.1 0 0 1 5.777.71 8.7 8.7 0 0 1 9.283 0q3.495 0 6.031 2.307t2.903 5.699h-1.011a7.93 7.93 0 0 0-1.569-3.897 7.7 7.7 0 0 0-3.354-2.547V2q0 .824-.588 1.413A1.93 1.93 0 0 1 10.283 4h-2v2q0 .424-.288.713A.97.97 0 0 1 7.283 7h-2v2h1.846v3h-.846l-4.8-4.8q-.075.45-.138.9-.062.45-.062.9 0 3.274 2.3 5.625T9.283 17zm9.023-.27-3.45-3.41q-.449.318-.971.5a3.4 3.4 0 0 1-1.102.18q-1.472 0-2.486-1.014T9.283 11.5t1.014-2.486T12.783 8q1.47 0 2.485 1.014t1.015 2.486q0 .599-.19 1.13a3.7 3.7 0 0 1-.53.982l3.45 3.411zM12.783 14q1.05 0 1.775-.725t.725-1.775-.725-1.775T12.783 9t-1.775.725-.725 1.775.725 1.775 1.775.725" fill="#FFFFFF"/>
</svg>
