<svg xmlns="http://www.w3.org/2000/svg" width="198" height="198" viewBox="0 0 198 198" fill="none"><g clip-path="url(#a)"><path d="M198 99c0-54.676-44.324-99-99-99S0 44.324 0 99s44.324 99 99 99 99-44.324 99-99" fill="#fff"/><path d="M40.383 40.383h20.964v-8.275H32.108v29.24h8.275zm96.27-8.275v8.275h20.964v20.964h8.275V32.108zm20.964 125.509h-20.964v8.275h29.239v-29.239h-8.275zM40.383 136.653h-8.275v29.239h29.24v-8.275H40.382zm67.418-56.273c7.224 0 13.102-5.877 13.102-13.102s-5.877-13.103-13.102-13.103-13.103 5.879-13.103 13.103 5.878 13.103 13.103 13.103Zm-53.625 63.444h89.648v-26.707l-16.176-17.068-19.617 11.411-27.309-19.515-26.546 28.009z" fill="#000" stroke="#000" stroke-width=".276"/></g><defs><clipPath id="a"><path fill="#fff" d="M0 0h198v198H0z"/></clipPath></defs></svg>