<svg width="30" height="29" viewBox="0 0 30 29" fill="none" xmlns="http://www.w3.org/2000/svg">
<path d="M26.2694 4.41998H13.1366L11.8694 0.0999756H3.22937C1.64537 0.0999756 0.349365 1.39598 0.349365 2.97998V21.7C0.349365 23.284 1.64537 24.58 3.22937 24.58H13.3094L14.7494 28.9H26.2694C27.8534 28.9 29.1494 27.604 29.1494 26.02V7.29998C29.1494 5.71598 27.8534 4.41998 26.2694 4.41998ZM7.79417 18.2296C4.55417 18.2296 1.90457 15.5944 1.90457 12.34C1.90457 9.08558 4.53977 6.45038 7.79417 6.45038C9.29177 6.45038 10.6598 6.98318 11.7398 7.99118L11.8406 8.07758L10.0694 9.77678L9.98296 9.70477C9.56536 9.31598 8.85977 8.85518 7.79417 8.85518C5.90777 8.85518 4.36696 10.4248 4.36696 12.34C4.36696 14.2552 5.90777 15.8248 7.79417 15.8248C9.76696 15.8248 10.6166 14.572 10.847 13.7224H7.66456V11.4904H13.3526L13.367 11.5912C13.4246 11.8936 13.439 12.1672 13.439 12.4696C13.439 15.8536 11.1206 18.2296 7.79417 18.2296ZM16.4774 15.7672C16.9526 16.6312 17.543 17.4664 18.191 18.2152L17.4134 18.9784L16.4774 15.7672ZM17.5862 14.6728H16.1606L15.7142 13.1752H21.4598C21.4598 13.1752 20.9702 15.0616 19.2134 17.1208C18.4646 16.228 17.9318 15.3496 17.5862 14.6728ZM27.7094 26.02C27.7094 26.812 27.0614 27.46 26.2694 27.46H16.1894L19.0694 24.58L17.903 20.5912L19.2278 19.2664L23.087 23.14L24.1382 22.0888L20.2358 18.2296C21.5318 16.7464 22.5398 14.9896 23.0006 13.1752H24.8294V11.6776H19.5878V10.18H18.0902V11.6776H15.2678L13.5686 5.85998H26.2694C27.0614 5.85998 27.7094 6.50798 27.7094 7.29998V26.02Z" fill="#616161"/>
</svg>
