<svg xmlns="http://www.w3.org/2000/svg" width="32" height="32" viewBox="0 0 32 32" fill="none">
  <path fill-rule="evenodd" clip-rule="evenodd" d="M16 0C7.163 0 0 7.163 0 16s7.163 16 16 16 16-7.163 16-16S24.837 0 16 0m2.667 24.9v2.733Q22.8 26.7 25.4 23.45t2.6-7.483-2.6-7.484Q22.8 5.234 18.667 4.3v2.733q3 .868 4.833 3.334t1.833 5.6q0 3.133-1.833 5.6T18.667 24.9M4 12v8h5.333L16 26.667V5.333L9.333 12zm14.667-1.4v10.733a5.57 5.57 0 0 0 2.45-2.183A5.94 5.94 0 0 0 22 16a6.1 6.1 0 0 0-.883-3.2 5.54 5.54 0 0 0-2.45-2.2" fill="#fff"/>
  <script/>
</svg>
