<svg xmlns="http://www.w3.org/2000/svg" width="32" height="32" viewBox="0 0 32 32" fill="none">
  <path fill-rule="evenodd" clip-rule="evenodd" d="M2.974 6.707A15.93 15.93 0 0 0 0 16c0 8.837 7.163 16 16 16 3.465 0 6.674-1.102 9.293-2.974L22.367 26.1q-.832.533-1.767.917-.933.382-1.933.616V24.9q.467-.167.917-.333.45-.167.85-.4L16 19.733v6.934L9.334 20H4v-8h4.266zm1.713-2.021 22.627 22.627A15.95 15.95 0 0 0 32 16c0-8.837-7.163-16-16-16A15.95 15.95 0 0 0 4.687 4.686M24.2 20.466l1.933 1.934q.9-1.4 1.383-3.033a12 12 0 0 0 .483-3.4q0-4.234-2.6-7.484T18.668 4.3v2.733q3 .867 4.833 3.334t1.834 5.6q0 1.2-.284 2.333a9 9 0 0 1-.85 2.167m-5.534-5.533 3 3A5.7 5.7 0 0 0 22 16a6.1 6.1 0 0 0-.883-3.2 5.54 5.54 0 0 0-2.45-2.2zM12.534 8.8 16 12.267V5.333z" fill="#fff"/>
  <script/>
</svg>
