<svg xmlns="http://www.w3.org/2000/svg" width="108" height="62" viewBox="0 0 108 62">
  <path d="M68.81 21.56h-4.58v8.27h4.58a4.13 4.13 0 0 0 3.1-1.09 4.2 4.2 0 0 0 1-3 4.24 4.24 0 0 0-1-3 4.05 4.05 0 0 0-3.1-1.18" fill="#fff"/>
  <path d="M96 0H12A12 12 0 0 0 0 12v38a12 12 0 0 0 12 12h84a12 12 0 0 0 12-12V12A12 12 0 0 0 96 0M41.9 46H34L24 16h8l6 21.84L44 16h8Zm39.29 0h-7.75l-5.29-10.61h-3.92V46H57V16h11.81q5.32 0 8.34 2.37a8 8 0 0 1 3 6.69 9.7 9.7 0 0 1-1.27 5.18 8.9 8.9 0 0 1-4 3.34l6.26 12.11Z" fill="#fff"/>
</svg>
